# AST/ASF file generated using VICON BodyLanguage
# -----------------------------------------------
:version 1.10
:name VICON
:units
  mass 1.0
  length 0.45
  angle deg
:documentation
   .ast/.asf automatically generated from VICON data using
   VICON BodyBuilder and BodyLanguage model FoxedUp or BRILLIANT.MOD
:root
   order TX TY TZ RX RY RZ
   axis XYZ
   position 0 0 0  
   orientation 0 0 0 
:bonedata
  begin
     id 1 
     name lhipjoint
     direction 0.561001 -0.76473 0.316963 
     length 2.4722 
     axis 0 0 0  XYZ
  end
  begin
     id 2 
     name lfemur
     direction 0.34202 -0.939693 0  
     length 7.59403  
     axis 0 0 20  XYZ
    dof rx ry rz
    limits (-160.0 20.0)
           (-70.0 70.0)
           (-60.0 70.0)
  end
  begin
     id 3 
     name ltibia
     direction 0.34202 -0.939693 0   
     length 7.89655   
     axis 0 0 20   XYZ
    dof rx
    limits (-10.0 170.0)
  end
  begin
     id 4 
     name lfoot
     direction 0.061296 -0.168409 0.98381   
     length 2.73287   
     axis -90 7.62852e-016 20   XYZ
    dof rx rz
    limits (-45.0 90.0)
           (-70.0 20.0)
  end
  begin
     id 5 
     name ltoes
     direction 1.53547e-011 -4.21984e-011 1   
     length 1.37057   
     axis -90 7.62852e-016 20   XYZ
    dof rx
    limits (-90.0 20.0)
  end
  begin
     id 6 
     name rhipjoint
     direction -0.559611 -0.765599 0.317323   
     length 2.46939  
     axis 0 0 0  XYZ 
  end
  begin
     id 7 
     name rfemur
     direction -0.34202 -0.939693 0   
     length 7.53712   
     axis 0 0 -20   XYZ
    dof rx ry rz
    limits (-160.0 20.0)
           (-70.0 70.0)
           (-70.0 60.0)
  end
  begin
     id 8 
     name rtibia
     direction -0.34202 -0.939693 0   
     length 8.12549   
     axis 0 0 -20   XYZ
    dof rx
    limits (-10.0 170.0)
 end
 begin
     id 9 
     name rfoot
     direction -0.066984 -0.184037 0.980634   
     length 2.67541  
     axis -90 -7.62852e-016 -20   XYZ
    dof rx rz
    limits (-45.0 90.0)
           (-20.0 70.0)
  end
  begin
     id 10 
     name rtoes
     direction -1.53549e-011 -4.21786e-011 1   
     length 1.34085   
     axis -90 -7.62852e-016 -20   XYZ
    dof rx
    limits (-90.0 20.0)
  end
  begin
     id 11 
     name lowerback
     direction -0.0522728 0.992594 -0.109658   
     length 2.05633   
     axis 0 0 0   XYZ
    dof rx ry rz
    limits (-20.0 45.0)
           (-30.0 30.0)
           (-30.0 30.0)
  end
  begin
     id 12 
     name upperback
     direction 0.00589338 0.999977 0.00335704   
     length 2.05845   
     axis 0 0 0   XYZ
    dof rx ry rz
    limits (-20.0 45.0)
           (-30.0 30.0)
           (-30.0 30.0)
  end
  begin
     id 13 
     name thorax
     direction 0.0292928 0.998059 0.0549487   
     length 2.09281   
     axis 0 0 0   XYZ
    dof rx ry rz
    limits (-20.0 45.0)
           (-30.0 30.0)
           (-30.0 30.0)
  end
  begin
     id 14 
     name lowerneck
     direction 0.0356368 0.980775 0.191858   
     length 1.84767   
     axis 0 0 0   XYZ
    dof rx ry rz
    limits (-20.0 45.0)
           (-30.0 30.0)
           (-30.0 30.0)
  end
  begin
     id 15 
     name upperneck
     direction -0.0227605 0.98931 -0.14404   
     length 1.89582   
     axis 0 0 0   XYZ
    dof rx ry rz
    limits (-20.0 45.0)
           (-30.0 30.0)
           (-30.0 30.0)
  end
  begin
     id 16
     name head
     direction -0.00932985 0.997511 -0.0698904  
     length 1.90213  
     axis 0 0 0   XYZ
    dof rx ry rz
    limits (-20.0 45.0)
           (-30.0 30.0)
           (-30.0 30.0)
  end
  begin
     id 17 
     name lclavicle
     direction 0.873442 0.479511 0.0846686  
     length 3.41193  
     axis 0 0 0   XYZ
    dof ry rz
    limits (-20.0 10.0)
           (0.0 20.0)
  end
  begin
     id 18 
     name lhumerus
     direction 1 -4.4897e-011 -5.62117e-018   
     length 5.59864   
     axis 180 -30 -90   XYZ
    dof rx ry rz
    limits (-60.0 90.0)
           (-90.0 90.0)
           (-90.0 90.0)
  end
  begin
     id 19
     name lradius
     direction 1 -4.48966e-011 -6.26295e-027   
     length 3.59542   
     axis 180 -30 -90   XYZ
    dof rx
    limits (-10.0 170.0)
  end
  begin
     id 20
     name lwrist
     direction 1 -4.48947e-011 -1.74096e-026   
     length 1.79771   
     axis 1.04567e-014 90 90   XYZ
    dof ry
    limits (-180.0 0.0)
 end
  begin
     id 21 
     name lhand
     direction 1 -4.49085e-011 -3.48469e-026   
     length 0.572014   
     axis 2.22196e-014 90 90   XYZ
    dof rx rz
    limits (-90.0 90.0)
           (-45.0 45.0)
  end
  begin
     id 22 
     name lfingers
     direction 1 -4.48884e-011 -6.96135e-026   
     length 0.461173   
     axis 4.44383e-014 90 90   XYZ
    dof rx
    limits (0.0 90.0)
  end
  begin
     id 23
     name lthumb
     direction 0.707107 -6.34976e-011 0.707107   
     length 0.662154   
     axis -90 45 -5.4397e-014   XYZ
    dof rx rz
    limits (-45.0 45.0)
           (-45.0 45.0)
  end
  begin
     id 24 
     name rclavicle
     direction -0.890242 0.443271 0.104786   
     length 3.46753  
     axis 0 0 0   XYZ 
    dof ry rz
    limits (-10.0 20.0)
           (-20.0 0.0)
  end
  begin
     id 25 
     name rhumerus
     direction -1 -4.48963e-011 -5.41723e-018  
     length 5.8094   
     axis 180 30 90   XYZ
    dof rx ry rz
    limits (-90.0 60.0)
           (-90.0 90.0)
           (-90.0 90.0)
  end
  begin
     id 26 
     name rradius
     direction -1 -4.48958e-011 -6.51059e-027   
     length 3.66953   
     axis 180 30 90   XYZ
    dof rx
    limits (-10.0 170.0)
  end
  begin
     id 27 
     name rwrist
     direction -1 -4.48975e-011 -1.74124e-026   
     length 1.83476   
     axis 1.04567e-014 -90 -90   XYZ
    dof ry
    limits (-180.0 0.0)
  end
  begin
     id 28
     name rhand
     direction -1 -4.49013e-011 -3.48326e-026   
     length 0.57843   
     axis 2.22196e-014 -90 -90   XYZ
    dof rx rz
    limits (-90.0 90.0)
           (-45.0 45.0)
  end
  begin
     id 29
     name rfingers
     direction -1 -4.49023e-011 -6.9669e-026   
     length 0.466345   
     axis 4.44383e-014 -90 -90   XYZ
    dof rx
    limits (0.0 90.0)
  end
  begin
     id 30
     name rthumb
     direction -0.707107 -6.34926e-011 0.707107   
     length 0.669581   
     axis -90 -45 5.4397e-014   XYZ
    dof rx rz
    limits (-45.0 45.0)
           (-45.0 45.0)
  end
:hierarchy
  begin
    root lhipjoint rhipjoint lowerback
    lhipjoint lfemur
    lfemur ltibia
    ltibia lfoot
    lfoot ltoes
    rhipjoint rfemur
    rfemur rtibia
    rtibia rfoot
    rfoot rtoes
    lowerback upperback
    upperback thorax
    thorax lowerneck lclavicle rclavicle
    lowerneck upperneck
    upperneck head
    lclavicle lhumerus
    lhumerus lradius
    lradius lwrist
    lwrist lhand lthumb
    lhand lfingers
    rclavicle rhumerus
    rhumerus rradius
    rradius rwrist
    rwrist rhand rthumb
    rhand rfingers
  end

#!OML:ASF H:\SkateBoarding\Project 1\Capture day 1\Session 1\Skater.ASF
:FULLY-SPECIFIED
:DEGREES
205
root 5.87287 18.7168 10.3503 -0.770221 16.528 -0.421794
lowerback 11.099 -1.45834 -4.58926
upperback 0.199898 -2.66302 -2.41304
thorax -5.93084 -1.20533 0.472755
lowerneck -12.078 3.11873 5.66475
upperneck 33.0085 4.23439 -2.91078
head 13.2815 2.22531 -1.49805
rclavicle -2.8128e-014 -3.97569e-014
rhumerus -33.7392 0.634549 -88.7416
rradius 37.9308
rwrist -13.2909
rhand -38.7951 -3.36309
rfingers 7.12502
rthumb -11.8061 -33.0103
lclavicle -2.8128e-014 -3.97569e-014
lhumerus -25.7908 -1.31033 86.1542
lradius 26.1144
lwrist 13.1788
lhand -17.6674 16.7903
lfingers 7.12502
lthumb 8.5913 46.5955
rfemur -38.7224 14.1944 11.1939
rtibia 50.0858
rfoot -3.32429 5.82938
rtoes -3.53714
lfemur 4.57692 -18.2529 -17.2316
ltibia 22.5075
lfoot -9.00922 -7.3647
ltoes 4.88402
206
root 5.86673 18.7251 10.397 -0.600605 16.5819 -0.407235
lowerback 11.1373 -1.42451 -4.5842
upperback 0.256438 -2.6179 -2.43273
thorax -5.89542 -1.18481 0.442665
lowerneck -11.9817 3.20045 5.75796
upperneck 33.2447 4.32254 -2.83535
head 13.3692 2.28846 -1.47385
rclavicle 1.14301e-014 4.77083e-015
rhumerus -33.4763 0.853231 -88.6095
rradius 38.0177
rwrist -13.4238
rhand -38.7517 -3.43753
rfingers 7.12502
rthumb -11.7642 -33.0872
lclavicle 1.14301e-014 4.77083e-015
lhumerus -25.3263 -1.59899 86.2169
lradius 26.3376
lwrist 13.5726
lhand -17.9106 16.6703
lfingers 7.12502
lthumb 8.35658 46.485
rfemur -38.7905 14.1341 11.2218
rtibia 50.1412
rfoot -3.398 5.92449
rtoes -3.50819
lfemur 4.69192 -18.3035 -17.1794
ltibia 22.1651
lfoot -8.90853 -7.20344
ltoes 5.18672
207
root 5.86035 18.7329 10.4417 -0.430085 16.6411 -0.392692
lowerback 11.1712 -1.39037 -4.58671
upperback 0.309215 -2.5728 -2.44482
thorax -5.86076 -1.16392 0.424676
lowerneck -11.8955 3.27249 5.83603
upperneck 33.4799 4.40127 -2.76403
head 13.4584 2.34506 -1.44972
rclavicle 3.47873e-014 2.38542e-014
rhumerus -33.2295 1.06278 -88.4596
rradius 38.0891
rwrist -13.5296
rhand -38.6967 -3.48787
rfingers 7.12502
rthumb -11.7112 -33.1405
lclavicle 3.47873e-014 2.38542e-014
lhumerus -24.8606 -1.85978 86.2857
lradius 26.5784
lwrist 14.0204
lhand -18.1689 16.5587
lfingers 7.12502
lthumb 8.10735 46.3832
rfemur -38.8508 14.0726 11.2478
rtibia 50.1827
rfoot -3.49361 6.03177
rtoes -3.5187
lfemur 4.7888 -18.3341 -17.1191
ltibia 21.8353
lfoot -8.8022 -7.05365
ltoes 5.46009
208
root 5.85366 18.7403 10.4846 -0.255777 16.7049 -0.379377
lowerback 11.1969 -1.35576 -4.59508
upperback 0.355774 -2.52724 -2.45046
thorax -5.82756 -1.14246 0.416489
lowerneck -11.8232 3.3344 5.89985
upperneck 33.721 4.46833 -2.69284
head 13.5527 2.39472 -1.42455
rclavicle 2.32578e-014 -3.02153e-014
rhumerus -33.0044 1.25996 -88.296
rradius 38.1502
rwrist -13.6142
rhand -38.6318 -3.51468
rfingers 7.12502
rthumb -11.6486 -33.1709
lclavicle 2.32578e-014 -3.02153e-014
lhumerus -24.3995 -2.10209 86.3601
lradius 26.8386
lwrist 14.5314
lhand -18.4337 16.4715
lfingers 7.12502
lthumb 7.85178 46.3057
rfemur -38.9066 14.0107 11.2746
rtibia 50.211
rfoot -3.61575 6.14755
rtoes -3.57894
lfemur 4.86683 -18.3493 -17.0479
ltibia 21.5147
lfoot -8.68825 -6.91611
ltoes 5.70812
209
root 5.84686 18.7475 10.5258 -0.0765599 16.7688 -0.37222
lowerback 11.2099 -1.32028 -4.60259
upperback 0.396112 -2.47949 -2.44862
thorax -5.79355 -1.11984 0.41504
lowerneck -11.7665 3.38829 5.96301
upperneck 33.966 4.52749 -2.63503
head 13.6526 2.43907 -1.40537
rclavicle 3.13086e-014 0
rhumerus -32.796 1.44137 -88.1182
rradius 38.198
rwrist -13.6833
rhand -38.5619 -3.51678
rfingers 7.12502
rthumb -11.5812 -33.1768
lclavicle 3.13086e-014 0
lhumerus -23.9462 -2.32123 86.4396
lradius 27.1216
lwrist 15.1034
lhand -18.6623 16.4254
lfingers 7.12502
lthumb 7.63109 46.2677
rfemur -38.9608 13.9514 11.3075
rtibia 50.2264
rfoot -3.76392 6.27057
rtoes -3.69792
lfemur 4.92431 -18.3544 -16.9619
ltibia 21.2043
lfoot -8.56956 -6.78803
ltoes 5.92521
210
root 5.83998 18.7545 10.5656 0.106557 16.8351 -0.366697
lowerback 11.2135 -1.28529 -4.61133
upperback 0.430352 -2.43203 -2.44275
thorax -5.7605 -1.09722 0.418386
lowerneck -11.7347 3.43627 6.00566
upperneck 34.22 4.57701 -2.56257
head 13.7611 2.47839 -1.37768
rclavicle -1.82882e-014 2.06736e-014
rhumerus -32.6042 1.60794 -87.9324
rradius 38.2335
rwrist -13.7517
rhand -38.4904 -3.49379
rfingers 7.12502
rthumb -11.5123 -33.1577
lclavicle -1.82882e-014 2.06736e-014
lhumerus -23.5059 -2.51554 86.519
lradius 27.4324
lwrist 15.7285
lhand -18.8276 16.3971
lfingers 7.12502
lthumb 7.47153 46.2451
rfemur -39.0104 13.8954 11.3409
rtibia 50.2299
rfoot -3.93613 6.39921
rtoes -3.85022
lfemur 4.96207 -18.357 -16.868
ltibia 20.9092
lfoot -8.44862 -6.66828
ltoes 6.11356
211
root 5.83304 18.7613 10.6036 0.294523 16.9035 -0.362379
lowerback 11.2113 -1.24962 -4.61734
upperback 0.457083 -2.38331 -2.43592
thorax -5.73229 -1.07387 0.420948
lowerneck -11.7121 3.47771 6.0644
upperneck 34.4612 4.61682 -2.50594
head 13.8671 2.51339 -1.3602
rclavicle -2.87244e-014 -1.43125e-014
rhumerus -32.4279 1.74663 -87.7403
rradius 38.2577
rwrist -13.8272
rhand -38.4138 -3.45822
rfingers 7.12502
rthumb -11.4384 -33.1262
lclavicle -2.87244e-014 -1.43125e-014
lhumerus -23.0807 -2.70005 86.598
lradius 27.7714
lwrist 16.4169
lhand -18.9331 16.3907
lfingers 7.12502
lthumb 7.36973 46.2423
rfemur -39.0593 13.8418 11.3728
rtibia 50.2229
rfoot -4.12531 6.53242
rtoes -4.00951
lfemur 4.97496 -18.3619 -16.7679
ltibia 20.6371
lfoot -8.32799 -6.55546
ltoes 6.27168
212
root 5.82626 18.7678 10.6397 0.485828 16.9721 -0.357607
lowerback 11.2055 -1.2148 -4.62229
upperback 0.478401 -2.33551 -2.42653
thorax -5.70768 -1.05086 0.425743
lowerneck -11.703 3.5144 6.12228
upperneck 34.6845 4.64943 -2.4535
head 13.9685 2.5444 -1.34489
rclavicle -1.27222e-014 -7.95139e-015
rhumerus -32.2581 1.86183 -87.5413
rradius 38.2671
rwrist -13.9163
rhand -38.3264 -3.42497
rfingers 7.12502
rthumb -11.354 -33.0976
lclavicle -1.27222e-014 -7.95139e-015
lhumerus -22.6656 -2.8634 86.68
lradius 28.1381
lwrist 17.1716
lhand -18.9819 16.434
lfingers 7.12502
lthumb 7.32267 46.2873
rfemur -39.1089 13.7922 11.399
rtibia 50.2077
rfoot -4.32293 6.66942
rtoes -4.15554
lfemur 4.96119 -18.368 -16.6664
ltibia 20.3957
lfoot -8.21271 -6.44634
ltoes 6.39853
213
root 5.81955 18.7741 10.674 0.679631 17.0454 -0.348647
lowerback 11.2003 -1.18152 -4.62558
upperback 0.494276 -2.28998 -2.41877
thorax -5.68923 -1.02883 0.428336
lowerneck -11.7024 3.54533 6.1779
upperneck 34.8794 4.67225 -2.40144
head 14.0588 2.57061 -1.33047
rclavicle 4.96962e-016 6.36111e-015
rhumerus -32.0963 1.94284 -87.3389
rradius 38.2634
rwrist -14.0199
rhand -38.2251 -3.40261
rfingers 7.12502
rthumb -11.2564 -33.0806
lclavicle 4.96962e-016 6.36111e-015
lhumerus -22.2742 -3.02025 86.7634
lradius 28.5473
lwrist 17.9932
lhand -18.9854 16.5329
lfingers 7.12502
lthumb 7.31929 46.3863
rfemur -39.159 13.7414 11.4162
rtibia 50.1871
rfoot -4.52243 6.80823
rtoes -4.27895
lfemur 4.9185 -18.3745 -16.5675
ltibia 20.1923
lfoot -8.10138 -6.34152
ltoes 6.4968
214
root 5.81302 18.7799 10.7062 0.871896 17.1184 -0.334629
lowerback 11.1982 -1.14879 -4.62717
upperback 0.507174 -2.24544 -2.41262
thorax -5.67582 -1.00722 0.428585
lowerneck -11.7068 3.5725 6.23256
upperneck 35.0393 4.68863 -2.35206
head 14.1346 2.59328 -1.31764
rclavicle 4.19436e-014 -1.43125e-014
rhumerus -31.9364 1.98762 -87.1341
rradius 38.2433
rwrist -14.1381
rhand -38.1118 -3.39552
rfingers 7.12502
rthumb -11.1471 -33.0794
lclavicle 4.19436e-014 -1.43125e-014
lhumerus -21.899 -3.17676 86.8498
lradius 28.9959
lwrist 18.8887
lhand -18.9859 16.6751
lfingers 7.12502
lthumb 7.31875 46.5285
rfemur -39.2102 13.6946 11.4225
rtibia 50.1637
rfoot -4.71533 6.94488
rtoes -4.35911
lfemur 4.8506 -18.3719 -16.4745
ltibia 20.0294
lfoot -7.99644 -6.23983
ltoes 6.55309
215
root 5.80661 18.7853 10.7364 1.05937 17.1913 -0.319754
lowerback 11.1999 -1.11815 -4.62547
upperback 0.519293 -2.20347 -2.40485
thorax -5.66535 -0.986872 0.42918
lowerneck -11.716 3.59657 6.27814
upperneck 35.1601 4.7016 -2.30549
head 14.1934 2.61256 -1.30461
rclavicle 7.35503e-015 2.06736e-014
rhumerus -31.7752 2.00035 -86.9262
rradius 38.2103
rwrist -14.2695
rhand -37.9809 -3.41191
rfingers 7.12502
rthumb -11.0209 -33.1026
lclavicle 7.35503e-015 2.06736e-014
lhumerus -21.5356 -3.32852 86.9414
lradius 29.4816
lwrist 19.8543
lhand -19.0069 16.8719
lfingers 7.12502
lthumb 7.29847 46.726
rfemur -39.2633 13.6496 11.4239
rtibia 50.1399
rfoot -4.89648 7.07566
rtoes -4.40031
lfemur 4.76185 -18.3545 -16.3828
ltibia 19.9024
lfoot -7.89348 -6.14414
ltoes 6.58292
